{
	"asset":{
		"generator":"Khronos glTF Blender I/O v4.0.44",
		"version":"2.0"
	},
	"scene":0,
	"scenes":[
		{
			"name":"Scene",
			"nodes":[
				0,
				1,
				2
			]
		}
	],
	"nodes":[
		{
			"mesh":0,
			"name":"Silicone",
			"translation":[
				0,
				0.8400512337684631,
				0
			]
		},
		{
			"mesh":1,
			"name":"Wood",
			"translation":[
				0,
				0.8400512337684631,
				0
			]
		},
		{
			"mesh":2,
			"name":"Ground",
			"translation":[
				0,
				0.007588337641209364,
				0.03947397693991661
			]
		}
	],
	"meshes":[
		{
			"name":"Silicone",
			"primitives":[
				{
					"attributes":{
						"POSITION":0,
						"NORMAL":1,
						"TEXCOORD_0":2
					},
					"indices":3
				}
			]
		},
		{
			"name":"Wood",
			"primitives":[
				{
					"attributes":{
						"POSITION":4,
						"NORMAL":5,
						"TEXCOORD_0":6
					},
					"indices":7
				}
			]
		},
		{
			"name":"Plane",
			"primitives":[
				{
					"attributes":{
						"POSITION":8,
						"NORMAL":9,
						"TEXCOORD_0":10
					},
					"indices":11
				}
			]
		}
	],
	"accessors":[
		{
			"bufferView":0,
			"componentType":5126,
			"count":30951,
			"max":[
				0.7995284795761108,
				1.2073030471801758,
				0.19899891316890717
			],
			"min":[
				-0.7995284795761108,
				-0.8319396376609802,
				-0.14788569509983063
			],
			"type":"VEC3"
		},
		{
			"bufferView":1,
			"componentType":5126,
			"count":30951,
			"type":"VEC3"
		},
		{
			"bufferView":2,
			"componentType":5126,
			"count":30951,
			"type":"VEC2"
		},
		{
			"bufferView":3,
			"componentType":5123,
			"count":180096,
			"type":"SCALAR"
		},
		{
			"bufferView":4,
			"componentType":5126,
			"count":5753,
			"max":[
				0.6941649317741394,
				0.43316689133644104,
				0.1881619542837143
			],
			"min":[
				-0.6941649317741394,
				-0.7511334419250488,
				0.17119579017162323
			],
			"type":"VEC3"
		},
		{
			"bufferView":5,
			"componentType":5126,
			"count":5753,
			"type":"VEC3"
		},
		{
			"bufferView":6,
			"componentType":5126,
			"count":5753,
			"type":"VEC2"
		},
		{
			"bufferView":7,
			"componentType":5123,
			"count":33600,
			"type":"SCALAR"
		},
		{
			"bufferView":8,
			"componentType":5126,
			"count":4,
			"max":[
				0.9730697274208069,
				0,
				0.35648301243782043
			],
			"min":[
				-0.9730697274208069,
				0,
				-0.35648301243782043
			],
			"type":"VEC3"
		},
		{
			"bufferView":9,
			"componentType":5126,
			"count":4,
			"type":"VEC3"
		},
		{
			"bufferView":10,
			"componentType":5126,
			"count":4,
			"type":"VEC2"
		},
		{
			"bufferView":11,
			"componentType":5123,
			"count":6,
			"type":"SCALAR"
		}
	],
	"bufferViews":[
		{
			"buffer":0,
			"byteLength":371412,
			"byteOffset":0,
			"target":34962
		},
		{
			"buffer":0,
			"byteLength":371412,
			"byteOffset":371412,
			"target":34962
		},
		{
			"buffer":0,
			"byteLength":247608,
			"byteOffset":742824,
			"target":34962
		},
		{
			"buffer":0,
			"byteLength":360192,
			"byteOffset":990432,
			"target":34963
		},
		{
			"buffer":0,
			"byteLength":69036,
			"byteOffset":1350624,
			"target":34962
		},
		{
			"buffer":0,
			"byteLength":69036,
			"byteOffset":1419660,
			"target":34962
		},
		{
			"buffer":0,
			"byteLength":46024,
			"byteOffset":1488696,
			"target":34962
		},
		{
			"buffer":0,
			"byteLength":67200,
			"byteOffset":1534720,
			"target":34963
		},
		{
			"buffer":0,
			"byteLength":48,
			"byteOffset":1601920,
			"target":34962
		},
		{
			"buffer":0,
			"byteLength":48,
			"byteOffset":1601968,
			"target":34962
		},
		{
			"buffer":0,
			"byteLength":32,
			"byteOffset":1602016,
			"target":34962
		},
		{
			"buffer":0,
			"byteLength":12,
			"byteOffset":1602048,
			"target":34963
		}
	],
	"buffers":[
		{
			"byteLength":1602060,
			"uri":"scene.bin"
		}
	]
}
